<svg xmlns="http://www.w3.org/2000/svg" viewBox="0 0 375.33 282.67"><defs><style>.cls-1{isolation:isolate;}.cls-2{fill:#489aff;}.cls-3,.cls-8{fill:#e3eaff;}.cls-4{fill:#6db8ff;}.cls-5{fill:#2f6dff;}.cls-6{fill:#c8d6f2;}.cls-7{fill:#424261;opacity:0.2;mix-blend-mode:multiply;}.cls-8{opacity:0.21;}.cls-9{fill:#f9fbfc;}.cls-10{fill:#9570ee;}.cls-11{fill:#bb87ee;}.cls-12{fill:#7f57ee;}.cls-13{fill:#ced6ff;}.cls-14{fill:#f7d3a9;}.cls-15{fill:#544db8;}.cls-16{fill:#ff8b40;}.cls-17{fill:#cdd4ff;}.cls-18{fill:#ffc240;}.cls-19{fill:#90c240;}.cls-20{fill:#eb4f24;}.cls-21{fill:#fff;}.cls-22{fill:#fd4940;}.cls-23{fill:#0cf;}.cls-24{fill:#ff56a9;}.cls-25{fill:#ffc359;}.cls-26{fill:#ff4dd1;}.cls-27{fill:#f79a74;}.cls-28{fill:#ff4f72;}.cls-29{fill:#fec800;}</style></defs><title>Artboard 1</title><g class="cls-1"><g id="OBJECTS"><path class="cls-2" d="M310.11,230.51A28.94,28.94,0,0,0,312.86,183a108.17,108.17,0,0,1,11.92-14.12q3.14-3.12,6.35-5.93c.85.72,1.69,1.47,2.51,2.24l7.12-4.35a7.73,7.73,0,0,1,10.63,2.57l7.06,11.54a7.73,7.73,0,0,1-2.57,10.63l-7.12,4.35A55.87,55.87,0,0,1,351,206.35l8,2.25a7.74,7.74,0,0,1,5.37,9.53l-3.64,13a7.73,7.73,0,0,1-9.52,5.37l-8.05-2.25a55.23,55.23,0,0,1-7.65,10.13l4.36,7.13a7.74,7.74,0,0,1-2.57,10.63l-11.55,7.05a7.73,7.73,0,0,1-10.63-2.56l-4.35-7.13a55.35,55.35,0,0,1-12.67,2.19,89.09,89.09,0,0,1-3.18-27A28.87,28.87,0,0,0,310.11,230.51Z"/><rect class="cls-3" x="28.81" y="69.93" width="273.35" height="194.22" rx="6.93" ry="6.93"/><rect class="cls-4" x="32.41" y="72.48" width="266.15" height="189.11" rx="5.49" ry="5.49"/><rect class="cls-5" x="43.92" y="81.38" width="243.14" height="163.52" rx="3.38" ry="3.38"/><path class="cls-3" d="M22.18,254.08a10.08,10.08,0,0,0-1.28,4.85,10.25,10.25,0,0,0,10.25,10.25H299.82a10.24,10.24,0,0,0,10.25-10.25,10.07,10.07,0,0,0-1.27-4.85Z"/><path class="cls-6" d="M22.18,263.79a10.21,10.21,0,0,0,9,5.39H299.82a10.22,10.22,0,0,0,9-5.39Z"/><path class="cls-7" d="M289.93,32.52H107.53V190.38c0,3.49,2.19,6.32,4.88,6.32H302.16V48.36C302.16,39.61,296.69,32.52,289.93,32.52Z"/><rect class="cls-8" x="114.24" y="27.2" width="213.52" height="164.01" rx="2.76" ry="2.76"/><rect class="cls-9" x="122.78" y="46.62" width="213.52" height="135.44" rx="2.76" ry="2.76"/><rect class="cls-7" x="58.65" y="110.07" width="27.76" height="28.98" rx="1.73" ry="1.73"/><rect class="cls-4" x="57.05" y="152.17" width="27.76" height="28.98" rx="1.73" ry="1.73"/><rect class="cls-4" x="57.05" y="193.35" width="27.76" height="28.98" rx="1.73" ry="1.73"/><path class="cls-10" d="M77,204.64a6.6,6.6,0,0,0-13.2,0s-.92,7,6.6,12.55C77.92,211.63,77,204.64,77,204.64Z"/><path class="cls-9" d="M70.78,209.41A4.78,4.78,0,1,1,75.16,205,4.78,4.78,0,0,1,70.78,209.41Z"/><path class="cls-10" d="M79.39,166.27a9.13,9.13,0,1,1-9.13-9.13A9.13,9.13,0,0,1,79.39,166.27Z"/><path class="cls-9" d="M77.63,166.27a7.37,7.37,0,1,1-7.37-7.36A7.36,7.36,0,0,1,77.63,166.27Z"/><path class="cls-11" d="M70.26,158.91a7.36,7.36,0,0,1,7.06,5.26.3.3,0,0,0,.28.22h0a.3.3,0,0,0,.29-.38,8,8,0,0,0-15.25,0,.3.3,0,0,0,.28.38h0a.3.3,0,0,0,.29-.22A7.36,7.36,0,0,1,70.26,158.91Z"/><path class="cls-12" d="M78.43,166.51a.87.87,0,0,0-.87.75,7.36,7.36,0,0,1-14.59,0,.88.88,0,0,0-.87-.75h0a.89.89,0,0,0-.88,1,9.13,9.13,0,0,0,18.09,0,.89.89,0,0,0-.88-1Z"/><path class="cls-9" d="M77.63,166.27a7.37,7.37,0,1,1-7.37-7.36A7.36,7.36,0,0,1,77.63,166.27Z"/><path class="cls-10" d="M77.44,168.65a.3.3,0,0,0-.28.19,7.36,7.36,0,0,1-13.79,0,.32.32,0,0,0-.28-.19h0a.3.3,0,0,0-.28.4,8,8,0,0,0,14.91,0,.3.3,0,0,0-.28-.4Z"/><path class="cls-10" d="M70.24,166.92h0a.35.35,0,0,1-.35-.35v-5.18a.36.36,0,0,1,.35-.36h0a.36.36,0,0,1,.36.36v5.18A.36.36,0,0,1,70.24,166.92Z"/><path class="cls-10" d="M70,166.37h0a.35.35,0,0,1,.5,0l3.19,2.7a.36.36,0,0,1,0,.5h0a.35.35,0,0,1-.5,0l-3.2-2.7A.35.35,0,0,1,70,166.37Z"/><rect class="cls-13" x="70.06" y="159.41" width="0.26" height="0.71"/><rect class="cls-13" x="70.06" y="172.31" width="0.26" height="0.71"/><rect class="cls-13" x="63.61" y="165.86" width="0.27" height="0.71" transform="translate(-102.47 229.96) rotate(-90)"/><rect class="cls-13" x="76.51" y="165.86" width="0.27" height="0.71" transform="translate(-89.58 242.85) rotate(-90)"/><rect class="cls-13" x="65.5" y="161.3" width="0.26" height="0.71" transform="translate(-95.06 93.69) rotate(-44.98)"/><rect class="cls-13" x="74.62" y="170.42" width="0.27" height="0.71" transform="translate(-98.86 102.87) rotate(-45)"/><rect class="cls-13" x="65.5" y="170.42" width="0.27" height="0.71" transform="translate(-8.73 337.93) rotate(-135)"/><rect class="cls-13" x="74.62" y="161.3" width="0.26" height="0.71" transform="translate(13.38 328.85) rotate(-135.03)"/><rect class="cls-4" x="57.05" y="109.16" width="27.76" height="28.98" rx="1.73" ry="1.73"/><polyline class="cls-14" points="55.71 135.16 58 133.56 59.03 129.78 57.89 129.56 57.2 130.93 57.89 124.41 56.74 124.64 55.6 130.93 54.23 133.9 55.48 134.7"/><polygon class="cls-14" points="69.25 141.95 69.55 139.2 72.91 135.85 73.67 136.91 72.45 138.29 78.86 136.76 78.86 138.13 72.91 140.42 71.69 142.56 69.25 141.95"/><polygon class="cls-15" points="27.49 209.82 39.96 270.85 49.41 269.84 43 267.48 45.36 266.81 41.99 209.82 27.49 209.82"/><path class="cls-15" d="M47.38,208.81s15.85,14.84,13.49,32.71c-2.7,14.16-8.43,19.56-8.43,19.56l-1.69-.34,2.62,6.91-7.59-8.09s9.36-12.9,3.54-26.3a36.12,36.12,0,0,0-18.46-18.21s10.87-9.87,11.63-9.61A51.71,51.71,0,0,1,47.38,208.81Z"/><path class="cls-16" d="M54.13,132.85S28.08,164.47,25,170.79c0,0-1.26,2.27-1.26,8.85s2.27,30.85,2.27,30.85L52.61,212s-8.6-29.59-8.85-30.35-4.56-5.31-8.6-6.32l22.25-40.21Z"/><path class="cls-14" d="M37.63,172.29s1.11,3.28,1.72,5.26c0,0-5.42-.11-7.33-2.63l2-4.85Z"/><path class="cls-14" d="M41.75,162s1.61,9.33,0,11.46-7.1-1.49-9.39-4.89-2.74-11,1.15-11.67A7.2,7.2,0,0,1,41.75,162Z"/><path class="cls-16" d="M39.29,179.31s20.88-13.14,22.57-15.83,6.4-22.74,6.4-22.74l4,1s-2.36,22.4-3,24.76-21.22,24.25-25.94,24.25S36.93,184.7,39.29,179.31Z"/><path class="cls-15" d="M30.51,157.35a7.94,7.94,0,0,1,7.63-2.9c4.88.92,6.1-.15,6.1-.15s-1.07,5.34-4.43,6.56-4.27.92-4.27.92a11.44,11.44,0,0,1,2.29,3.2c.46,1.37-1.52-1.68-2.29-.61s0,3.35,1.53,3.2.61,1.07,0,2.29-1.53,2.74-2.44,2.29a10.78,10.78,0,0,1-5.34-6.1C28.07,162.23,27.76,158.57,30.51,157.35Z"/><rect class="cls-3" x="135.9" y="60.81" width="64.06" height="107.98" rx="1.3" ry="1.3"/><rect class="cls-4" x="146.88" y="69.5" width="41.48" height="9.15" rx="1.04" ry="1.04"/><path class="cls-4" d="M160.76,129.52h-8.24A3.51,3.51,0,0,1,149,126h0a3.51,3.51,0,0,1,3.5-3.51h8.24a3.51,3.51,0,0,1,3.51,3.51h0A3.51,3.51,0,0,1,160.76,129.52Z"/><path class="cls-10" d="M184.55,129.52h-8.23a3.51,3.51,0,0,1-3.51-3.51h0a3.51,3.51,0,0,1,3.51-3.51h8.23a3.51,3.51,0,0,1,3.51,3.51h0A3.51,3.51,0,0,1,184.55,129.52Z"/><rect class="cls-9" x="145.97" y="87.8" width="44.54" height="7.02"/><rect class="cls-9" x="145.97" y="99.7" width="44.54" height="7.02"/><rect class="cls-17" x="155.57" y="111.14" width="25.62" height="1.6"/><path class="cls-10" d="M332,148.81H251.89a8.92,8.92,0,0,1-8.92-8.92h0a8.92,8.92,0,0,1,8.92-8.92H332a8.92,8.92,0,0,1,8.92,8.92h0A8.92,8.92,0,0,1,332,148.81Z"/><path class="cls-3" d="M262.64,73.16H212.77a7.32,7.32,0,0,1-7.32-7.32h0a7.32,7.32,0,0,1,7.32-7.32h49.87A7.32,7.32,0,0,1,270,65.84h0A7.32,7.32,0,0,1,262.64,73.16Z"/><path class="cls-18" d="M224.66,65.84a2.29,2.29,0,1,1-2.28-2.29A2.28,2.28,0,0,1,224.66,65.84Z"/><path class="cls-19" d="M240.37,65.84a2.29,2.29,0,1,1-2.28-2.29A2.28,2.28,0,0,1,240.37,65.84Z"/><path class="cls-20" d="M254.86,65.84a2.29,2.29,0,1,1-2.28-2.29A2.28,2.28,0,0,1,254.86,65.84Z"/><circle class="cls-21" cx="70.61" cy="125.43" r="5.57"/><path class="cls-10" d="M76.39,118.7h-1l-1.41-2a.58.58,0,0,0-.48-.25H67.88a.61.61,0,0,0-.49.25l-1.41,2H65a2.79,2.79,0,0,0-2.78,2.78v8.07A2.79,2.79,0,0,0,65,132.33H76.39a2.78,2.78,0,0,0,2.77-2.78v-8.07A2.78,2.78,0,0,0,76.39,118.7Zm-5.7,10.84a4.1,4.1,0,1,1,4.1-4.09A4.09,4.09,0,0,1,70.69,129.54Z"/><circle class="cls-4" cx="70.69" cy="125.45" r="2.71"/><rect class="cls-3" x="224.41" y="88.15" width="49.08" height="32.24" rx="2.04" ry="2.04"/><path class="cls-22" d="M249,104h-.1a1.25,1.25,0,0,1-.62-.16L229.36,93.35a1.29,1.29,0,0,1,1.25-2.26L249,101.28l18.34-10.19a1.29,1.29,0,0,1,1.26,2.26l-18.92,10.51A1.28,1.28,0,0,1,249,104Z"/><rect class="cls-15" x="284.6" y="38.39" width="60.85" height="78.7" rx="1.81" ry="1.81"/><path class="cls-23" d="M298.2,48.94h-4.05c-.22,0-.39-.35-.39-.79h0c0-.43.17-.78.39-.78h4.05c.22,0,.39.35.39.78h0C298.59,48.59,298.42,48.94,298.2,48.94Z"/><path class="cls-23" d="M323.3,48.94H300.11c-.22,0-.39-.35-.39-.79h0c0-.43.17-.78.39-.78H323.3c.22,0,.39.35.39.78h0C323.69,48.59,323.52,48.94,323.3,48.94Z"/><path class="cls-24" d="M307.51,52.18h-7.4c-.22,0-.39-.35-.39-.79h0c0-.43.17-.78.39-.78h7.4c.21,0,.39.35.39.78h0C307.9,51.83,307.72,52.18,307.51,52.18Z"/><path class="cls-3" d="M319.68,52.18H309c-.21,0-.39-.35-.39-.79h0c0-.43.18-.78.39-.78h10.67c.21,0,.39.35.39.78h0C320.07,51.83,319.89,52.18,319.68,52.18Z"/><path class="cls-3" d="M323.3,68H300.11c-.22,0-.39-.36-.39-.79h0c0-.43.17-.78.39-.78H323.3c.22,0,.39.35.39.78h0C323.69,67.6,323.52,68,323.3,68Z"/><path class="cls-23" d="M298.2,71.2h-4.05c-.22,0-.39-.35-.39-.79h0c0-.43.17-.78.39-.78h4.05c.22,0,.39.35.39.78h0C298.59,70.85,298.42,71.2,298.2,71.2Z"/><path class="cls-3" d="M307.51,71.2h-7.4c-.22,0-.39-.35-.39-.79h0c0-.43.17-.78.39-.78h7.4c.21,0,.39.35.39.78h0C307.9,70.85,307.72,71.2,307.51,71.2Z"/><path class="cls-24" d="M319.68,71.2H309c-.21,0-.39-.35-.39-.79h0c0-.43.18-.78.39-.78h10.67c.21,0,.39.35.39.78h0C320.07,70.85,319.89,71.2,319.68,71.2Z"/><path class="cls-24" d="M329.05,55.42H300.11c-.22,0-.39-.35-.39-.79h0c0-.43.17-.78.39-.78h28.94c.22,0,.39.35.39.78h0C329.44,55.07,329.27,55.42,329.05,55.42Z"/><rect class="cls-23" x="315.84" y="57.09" width="7.56" height="1.57" rx="0.23" ry="0.23"/><path class="cls-3" d="M309.72,58.66h-9.61c-.22,0-.39-.35-.39-.78h0c0-.44.17-.79.39-.79h9.61c.22,0,.39.35.39.79h0C310.11,58.31,309.94,58.66,309.72,58.66Z"/><path class="cls-23" d="M314.84,58.66H311c-.22,0-.39-.35-.39-.78h0c0-.44.17-.79.39-.79h3.81c.22,0,.39.35.39.79h0C315.23,58.31,315.06,58.66,314.84,58.66Z"/><path class="cls-3" d="M298.2,61.79h-4.05c-.22,0-.39-.35-.39-.78h0c0-.44.17-.79.39-.79h4.05c.22,0,.39.35.39.79h0C298.59,61.44,298.42,61.79,298.2,61.79Z"/><path class="cls-3" d="M329.05,61.79H300.11c-.22,0-.39-.35-.39-.78h0c0-.44.17-.79.39-.79h28.94c.22,0,.39.35.39.79h0C329.44,61.44,329.27,61.79,329.05,61.79Z"/><path class="cls-3" d="M298.2,74.2h-4.05c-.22,0-.39-.35-.39-.79h0c0-.43.17-.78.39-.78h4.05c.22,0,.39.35.39.78h0C298.59,73.85,298.42,74.2,298.2,74.2Z"/><rect class="cls-3" x="315.84" y="72.63" width="10.47" height="1.57" rx="0.28" ry="0.28"/><path class="cls-3" d="M309.72,74.2h-9.61c-.22,0-.39-.35-.39-.79h0c0-.43.17-.78.39-.78h9.61c.22,0,.39.35.39.78h0C310.11,73.85,309.94,74.2,309.72,74.2Z"/><path class="cls-3" d="M314.84,74.2H311c-.22,0-.39-.35-.39-.79h0c0-.43.17-.78.39-.78h3.81c.22,0,.39.35.39.78h0C315.23,73.85,315.06,74.2,314.84,74.2Z"/><path class="cls-25" d="M298.2,77.33h-4.05c-.22,0-.39-.35-.39-.78h0c0-.44.17-.79.39-.79h4.05c.22,0,.39.35.39.79h0C298.59,77,298.42,77.33,298.2,77.33Z"/><path class="cls-23" d="M305.12,77.33h-5c-.22,0-.39-.35-.39-.78h0c0-.44.17-.79.39-.79h5c.22,0,.39.35.39.79h0C305.51,77,305.34,77.33,305.12,77.33Z"/><path class="cls-23" d="M294.15,65c-.22,0-.39-.35-.39-.78h0c0-.43.17-.79.39-.79h4.05c.22,0,.39.36.39.79h0c0,.43-.17.78-.39.78"/><rect class="cls-3" x="315.84" y="63.46" width="11.83" height="1.57" rx="0.29" ry="0.29"/><path class="cls-25" d="M309.72,65h-9.61c-.22,0-.39-.35-.39-.78h0c0-.43.17-.79.39-.79h9.61c.22,0,.39.36.39.79h0C310.11,64.68,309.94,65,309.72,65Z"/><path class="cls-25" d="M314.84,65H311c-.22,0-.39-.35-.39-.78h0c0-.43.17-.79.39-.79h3.81c.22,0,.39.36.39.79h0C315.23,64.68,315.06,65,314.84,65Z"/><path class="cls-3" d="M323.3,80.66H300.11c-.22,0-.39-.35-.39-.78h0c0-.44.17-.79.39-.79H323.3c.22,0,.39.35.39.79h0C323.69,80.31,323.52,80.66,323.3,80.66Z"/><path class="cls-3" d="M307.51,83.9h-7.4c-.22,0-.39-.35-.39-.78h0c0-.43.17-.79.39-.79h7.4c.21,0,.39.36.39.79h0C307.9,83.55,307.72,83.9,307.51,83.9Z"/><path class="cls-3" d="M319.68,83.9H309c-.21,0-.39-.35-.39-.78h0c0-.43.18-.79.39-.79h10.67c.21,0,.39.36.39.79h0C320.07,83.55,319.89,83.9,319.68,83.9Z"/><path class="cls-3" d="M323.3,99.68H300.11c-.22,0-.39-.35-.39-.78h0c0-.44.17-.79.39-.79H323.3c.22,0,.39.35.39.79h0C323.69,99.33,323.52,99.68,323.3,99.68Z"/><path class="cls-24" d="M298.2,102.92h-4.05c-.22,0-.39-.35-.39-.78h0c0-.44.17-.79.39-.79h4.05c.22,0,.39.35.39.79h0C298.59,102.57,298.42,102.92,298.2,102.92Z"/><path class="cls-23" d="M307.51,102.92h-7.4c-.22,0-.39-.35-.39-.78h0c0-.44.17-.79.39-.79h7.4c.21,0,.39.35.39.79h0C307.9,102.57,307.72,102.92,307.51,102.92Z"/><path class="cls-3" d="M319.68,102.92H309c-.21,0-.39-.35-.39-.78h0c0-.44.18-.79.39-.79h10.67c.21,0,.39.35.39.79h0C320.07,102.57,319.89,102.92,319.68,102.92Z"/><path class="cls-24" d="M298.2,87.14h-4.05c-.22,0-.39-.35-.39-.78h0c0-.43.17-.79.39-.79h4.05c.22,0,.39.36.39.79h0C298.59,86.79,298.42,87.14,298.2,87.14Z"/><rect class="cls-24" x="299.72" y="85.57" width="21.57" height="1.57" rx="0.27" ry="0.27"/><path class="cls-3" d="M298.2,90.38h-4.05c-.22,0-.39-.35-.39-.78h0c0-.43.17-.78.39-.78h4.05c.22,0,.39.35.39.78h0C298.59,90,298.42,90.38,298.2,90.38Z"/><path class="cls-3" d="M309.72,90.38h-9.61c-.22,0-.39-.35-.39-.78h0c0-.43.17-.78.39-.78h9.61c.22,0,.39.35.39.78h0C310.11,90,309.94,90.38,309.72,90.38Z"/><path class="cls-3" d="M314.84,90.38H311c-.22,0-.39-.35-.39-.78h0c0-.43.17-.78.39-.78h3.81c.22,0,.39.35.39.78h0C315.23,90,315.06,90.38,314.84,90.38Z"/><path class="cls-3" d="M298.2,93.52h-4.05c-.22,0-.39-.36-.39-.79h0c0-.43.17-.78.39-.78h4.05c.22,0,.39.35.39.78h0C298.59,93.16,298.42,93.52,298.2,93.52Z"/><rect class="cls-3" x="299.72" y="91.95" width="27.16" height="1.57" rx="0.3" ry="0.3"/><path class="cls-3" d="M298.2,105.92h-4.05c-.22,0-.39-.35-.39-.78h0c0-.44.17-.79.39-.79h4.05c.22,0,.39.35.39.79h0C298.59,105.57,298.42,105.92,298.2,105.92Z"/><path class="cls-3" d="M329,105.92H316.23c-.22,0-.39-.35-.39-.78h0c0-.44.17-.79.39-.79H329c.22,0,.39.35.39.79h0C329.41,105.57,329.24,105.92,329,105.92Z"/><path class="cls-3" d="M309.72,105.92h-9.61c-.22,0-.39-.35-.39-.78h0c0-.44.17-.79.39-.79h9.61c.22,0,.39.35.39.79h0C310.11,105.57,309.94,105.92,309.72,105.92Z"/><path class="cls-3" d="M314.84,105.92H311c-.22,0-.39-.35-.39-.78h0c0-.44.17-.79.39-.79h3.81c.22,0,.39.35.39.79h0C315.23,105.57,315.06,105.92,314.84,105.92Z"/><rect class="cls-25" x="299.72" y="107.49" width="17.94" height="1.57" rx="0.24" ry="0.24"/><rect class="cls-24" x="315.84" y="95.19" width="12.52" height="1.57" rx="0.3" ry="0.3"/><path class="cls-25" d="M309.72,96.76h-9.61c-.22,0-.39-.35-.39-.79h0c0-.43.17-.78.39-.78h9.61c.22,0,.39.35.39.78h0C310.11,96.41,309.94,96.76,309.72,96.76Z"/><path class="cls-25" d="M314.84,96.76H311c-.22,0-.39-.35-.39-.79h0c0-.43.17-.78.39-.78h3.81c.22,0,.39.35.39.78h0C315.23,96.41,315.06,96.76,314.84,96.76Z"/><circle class="cls-26" cx="340.55" cy="40.01" r="12.81"/><path class="cls-9" d="M339.62,38.81l-5.09,1.87,5.09,1.85v1.91l-7.27-2.77v-2l7.27-2.76Z"/><path class="cls-9" d="M341.29,36.92l7.27,2.76v2l-7.27,2.77V42.53l5.08-1.85-5.08-1.87Z"/><circle class="cls-18" cx="255.81" cy="256.04" r="13.9" transform="translate(-99.61 187.71) rotate(-34.14)"/><path class="cls-21" d="M263.15,255.24a6.49,6.49,0,0,1-.42,2.37,3.74,3.74,0,0,1-1.17,1.68,2.67,2.67,0,0,1-1.75.61,2.18,2.18,0,0,1-1.17-.31,1.86,1.86,0,0,1-.74-.84h-.15a3.07,3.07,0,0,1-2.47,1.15,3.28,3.28,0,0,1-2.5-.95,3.6,3.6,0,0,1-.92-2.62,4.07,4.07,0,0,1,1.2-3.06,4.37,4.37,0,0,1,3.15-1.16,10.78,10.78,0,0,1,1.7.15,9.15,9.15,0,0,1,1.53.36l-.2,4.39c0,.83.22,1.25.68,1.25s.69-.28.92-.84a6.08,6.08,0,0,0,.34-2.2,5.28,5.28,0,0,0-.6-2.55,4.16,4.16,0,0,0-1.7-1.7,5.2,5.2,0,0,0-2.49-.58,6.5,6.5,0,0,0-3.16.74,5,5,0,0,0-2,2.16,7,7,0,0,0-.71,3.25,5.15,5.15,0,0,0,1.32,3.8,5.24,5.24,0,0,0,3.84,1.33,11.65,11.65,0,0,0,2.1-.21,14.59,14.59,0,0,0,2.24-.62v1.73a10.85,10.85,0,0,1-4.26.81,7.5,7.5,0,0,1-5.33-1.79,6.55,6.55,0,0,1-1.91-5,8.37,8.37,0,0,1,1-4,7,7,0,0,1,2.77-2.84,8.19,8.19,0,0,1,4.15-1,7.5,7.5,0,0,1,3.53.81,5.67,5.67,0,0,1,2.4,2.3A6.88,6.88,0,0,1,263.15,255.24Zm-9.21,1.12c0,1.27.52,1.9,1.55,1.9a1.43,1.43,0,0,0,1.23-.57,3.63,3.63,0,0,0,.51-1.86l.12-2a4.67,4.67,0,0,0-1-.1,2.2,2.2,0,0,0-1.75.7A2.77,2.77,0,0,0,253.94,256.36Z"/><path class="cls-10" d="M186,15.61H98.79a12.83,12.83,0,0,0,0,25.65h6.41l6.19,6.19,6.2-6.19H186a12.83,12.83,0,0,0,0-25.65Z"/><path class="cls-21" d="M161,32.52H103.65a1.43,1.43,0,0,1-1.43-1.43h0a1.44,1.44,0,0,1,1.43-1.44H161a1.44,1.44,0,0,1,1.44,1.44h0A1.43,1.43,0,0,1,161,32.52Z"/><path class="cls-21" d="M143.1,24.63H103.65a1.43,1.43,0,0,1-1.43-1.43h0a1.43,1.43,0,0,1,1.43-1.43H143.1a1.43,1.43,0,0,1,1.43,1.43h0A1.43,1.43,0,0,1,143.1,24.63Z"/><path class="cls-14" d="M305.14,178.08s-1.07,3.16-1.66,5.08c0,0,5.23-.11,7.07-2.54l-1.95-4.68Z"/><polygon class="cls-27" points="304.35 265.37 304.8 267.36 307.68 267.52 307.07 265.08 304.35 265.37"/><path class="cls-15" d="M304.8,267.36S300,269.88,300,270s8.17-.69,8.17-.69l-.49-1.83Z"/><polygon class="cls-27" points="328.74 261.35 329.87 263.05 332.63 262.16 331.18 260.11 328.74 261.35"/><path class="cls-15" d="M329.87,263.05s-3.6,4.09-3.51,4.23,7.38-3.58,7.38-3.58l-1.11-1.54Z"/><path class="cls-18" d="M299,212.73s-8.29,27.07,4.88,53.16h3.9s-7.8-29.51,2-53.41Z"/><path class="cls-18" d="M306.18,213.69s1.29,28.28,22.46,48.43l3.68-1.31s-17.27-25.17-16.11-51Z"/><path class="cls-27" d="M302.39,150v-1.67a.78.78,0,0,0,0-.22l-.32-1.19-.95.24-1-.9a.84.84,0,0,0-1.31.25,9,9,0,0,0-.74,2.08.77.77,0,0,0,.21.68l1.48,1.63a.82.82,0,0,0,.84.23l1.18-.35A.83.83,0,0,0,302.39,150Z"/><path class="cls-28" d="M316.69,186.57s-10.82-11.6-11.53-15.93-2.29-20.48-2.29-20.48l-3.34.64s-1.14,23.09-.13,25.75,7.52,16.2,11.75,17.45S318.36,191.08,316.69,186.57Z"/><path class="cls-27" d="M301.67,167.45s-2.44,8.11-.9,10.16,7.24.19,9.45-3.08,2.65-10.64-1.11-11.26S302.55,164.17,301.67,167.45Z"/><path class="cls-28" d="M316.3,214.92s2.2-23.41,2.2-29.75c0-.29,0-.56,0-.84-1.64-4.12-5.69-4-7.31-3.71s-8,2.35-7.93,2.6v0a15.4,15.4,0,0,0-4,3.92A37.82,37.82,0,0,0,298.5,214Z"/><path class="cls-27" d="M285.3,151.15l-.28-1.64a.83.83,0,0,0-.06-.21l-.53-1.12-.89.41-1.11-.71a.82.82,0,0,0-1.24.47,9.08,9.08,0,0,0-.38,2.18.83.83,0,0,0,.33.63l1.75,1.34a.83.83,0,0,0,.87.08l1.1-.55A.81.81,0,0,0,285.3,151.15Z"/><path class="cls-28" d="M305.81,184.68s-12.68-9.51-14.14-13.66-5.85-19.75-5.85-19.75l-3.18,1.22s2.93,22.92,4.39,25.36,10.25,14.64,14.64,15.12S308.25,188.83,305.81,184.68Z"/><path class="cls-15" d="M310.69,163.22s-6.5-2.76-9.59,2.93c-1.63,3.57,3.58.16,4.55,1.3s-1.3,3.41-.65,4.22,1.79-1.46,2.44-.16-1,1.47-2.11,2.93,1,3.58-.65,4.88-6.18,2.27-3.42,9.26-4.55,8.78-1.46,18.38,24.06,14.95,28,3.57-9.1-14.14-8.29-19.18,3.74-6.34-.16-11.38-6.34-8-5.2-11.22A4.27,4.27,0,0,0,310.69,163.22Z"/><path class="cls-29" d="M328.43,123.91a14,14,0,1,0,14,14A14,14,0,0,0,328.43,123.91Zm-7.07,12.89a1.71,1.71,0,1,1,1.71,1.71A1.71,1.71,0,0,1,321.36,136.8Zm7.07,8.72a4.45,4.45,0,0,1-4.41-3.84h8.81A4.44,4.44,0,0,1,328.43,145.52Zm5.36-7a1.71,1.71,0,1,1,1.71-1.71A1.7,1.7,0,0,1,333.79,138.51Z"/><polygon class="cls-9" points="120.75 237.33 119.93 235.69 142.1 224.61 170.06 225.07 200.41 213.63 223.6 213.63 248.36 205.38 248.56 205.4 268.42 207.66 279.61 201.84 280.45 203.46 268.76 209.54 268.49 209.51 248.56 207.24 223.75 215.46 200.58 215.46 170.38 226.9 170.2 226.9 142.51 226.45 120.75 237.33"/><path class="cls-15" d="M202.09,193.42s22,35.57,19.22,60.32l14.95.31-6.41-3.71,1.83-.31s-5.49-38.36-10.68-52c-5.43-14.26-7-9-7-9Z"/><path class="cls-15" d="M194.16,191.21s1.22,24.71-.61,34.17-7.32,28.06-7.32,28.06l14,.3-3.68-2.6-2.34-1.36s10-26.84,10.9-39.66A169.27,169.27,0,0,1,207.58,190Z"/><polyline class="cls-14" points="222.87 118.08 225.16 116.48 226.19 112.7 225.05 112.47 224.36 113.85 225.05 107.33 223.9 107.56 222.76 113.85 221.38 116.82 222.64 117.62"/><polygon class="cls-14" points="236.41 124.87 236.71 122.12 240.07 118.77 240.83 119.83 239.61 121.21 246.02 119.68 246.02 121.05 240.07 123.34 238.85 125.48 236.41 124.87"/><path class="cls-4" d="M221.28,115.77s-26,31.61-29.08,37.94c0,0-1.26,2.27-1.26,8.85s2.27,30.85,2.27,30.85l26.56,1.52s-8.6-29.59-8.85-30.35-4.56-5.31-8.6-6.32l22.25-40.21Z"/><path class="cls-14" d="M204.79,155.21s1.11,3.28,1.72,5.26c0,0-5.42-.11-7.33-2.63l2-4.85Z"/><path class="cls-14" d="M208.91,145s1.61,9.33,0,11.45-7.1-1.48-9.39-4.88-2.75-11,1.15-11.67A7.2,7.2,0,0,1,208.91,145Z"/><path class="cls-4" d="M206.45,162.23S227.33,149.09,229,146.4s6.4-22.74,6.4-22.74l4,1s-2.36,22.4-3,24.76-21.22,24.25-25.94,24.25S204.09,167.62,206.45,162.23Z"/><path class="cls-15" d="M207.43,142.86s1.07-3.66-1.22-5.49-6.25-1.52-6.86-.91c0,1.07,2.44,1.68,1.83,2.29s-3.82,0-4.58,3.2.31,3.81.31,3.81-1.68,2,.3,4.73,6.47,5,7.58,4.72.5-4.57.5-4.57-2.59-.3-2.74-2,1.22-1.83,1.83-1.22.76,2,1.22,1.68-.15-3.51-.15-3.51A6.37,6.37,0,0,0,207.43,142.86Z"/><path class="cls-10" d="M219.72,236.31,204,240.61a8.16,8.16,0,0,0-5.69,10l3,10.82a8.16,8.16,0,0,0,10,5.69l4.7-1.29,4.63,4.58,1.65-6.3,4.7-1.29a8.15,8.15,0,0,0,5.69-10l-3-10.82A8.17,8.17,0,0,0,219.72,236.31Z"/><path class="cls-21" d="M209.34,254a1.8,1.8,0,1,1-2.21-1.26A1.81,1.81,0,0,1,209.34,254Z"/><path class="cls-21" d="M217.25,251.87a1.8,1.8,0,1,1-2.21-1.26A1.81,1.81,0,0,1,217.25,251.87Z"/><path class="cls-21" d="M225.15,249.7a1.8,1.8,0,1,1-2.21-1.26A1.79,1.79,0,0,1,225.15,249.7Z"/><circle class="cls-18" cx="142.15" cy="225.07" r="2.9"/><circle class="cls-28" cx="248.61" cy="206.46" r="2.9"/></g></g></svg>